<svg xmlns="http://www.w3.org/2000/svg" xmlns:xlink="http://www.w3.org/1999/xlink" width="24" height="24" viewBox="0 0 24 24"><defs><style>.a{fill:#333;}.b{clip-path:url(#a);}.c{fill:none;}.d{clip-path:url(#b);}</style><clipPath id="a"><path d="M31.125,0h24V24h-24Z"/></clipPath><clipPath id="b"><path class="a" d="M31.125,0h24V24h-24Z"/></clipPath></defs><g transform="translate(-31.125)"><g class="b"><path class="c" d="M31.125,0h24V24h-24Z"/></g><g class="d"><path class="a" d="M47.808,13.6l-1.442-1.387,4.613-4.8V5.081h2V8.22Z"/><path class="a" d="M49.426,23H33.208V21H48.145l3.143-6.833L49.161,10.6l1.717-1.026,2.668,4.47Z"/><path class="a" d="M37.774,11.03l-1.732-1,2.182-3.789,4.248-.395,2.644,1.831,1.968-2.113,1.463,1.363L45.4,10.308l-3.466-2.4-2.493.232Z"/><path class="a" d="M34.824,19.429l-.6-1.906,4.458-1.415,1.539-4.479,1.007-4.951,1.959.4-1.054,5.142-1.887,5.491Z"/><path class="a" d="M45.864,19.553l-2-.117.206-3.5L40.53,12.886l1.305-1.516,4.294,3.693Z"/><path class="a" d="M42.907,5.231a2.116,2.116,0,1,1,2.116-2.115A2.118,2.118,0,0,1,42.907,5.231Z"/></g></g></svg>